HIERARCHY
ROOT Hips
{
	OFFSET 0.000000 0.000000 0.000000
	CHANNELS 6 Xposition Yposition Zposition Xrotation Yrotation Zrotation
	JOINT LeftUpLeg_virtual
	{
		OFFSET 0.000000 0.000000 0.000000
		CHANNELS 3 Xrotation Yrotation Zrotation
		JOINT LeftUpLeg
		{
			OFFSET 15.427100 -6.655098 0.678600
			CHANNELS 3 Xrotation Yrotation Zrotation
			JOINT LeftLeg
			{
				OFFSET 4.081073 -39.591068 13.024000
				CHANNELS 3 Xrotation Yrotation Zrotation
				JOINT LeftFoot
				{
					OFFSET -4.081074 -37.707932 -15.979700
					CHANNELS 3 Xrotation Yrotation Zrotation
					JOINT LeftToeBase
					{
						OFFSET 5.346399 -15.068900 20.645000
						CHANNELS 3 Xrotation Yrotation Zrotation
						JOINT LeftToe_End
						{
							OFFSET 2.754700 0.931300 11.300900
							CHANNELS 3 Xrotation Yrotation Zrotation
							End Site
							{
								OFFSET 0 0 0
							}
						}
					}
				}
			}
		}
	}
	JOINT RightUpLeg_virtual
	{
		OFFSET 0.000000 0.000000 0.000000
		CHANNELS 3 Xrotation Yrotation Zrotation
		JOINT RightUpLeg
		{
			OFFSET -15.569500 -6.655098 0.678600
			CHANNELS 3 Xrotation Yrotation Zrotation
			JOINT RightLeg
			{
				OFFSET -4.081825 -39.591045 13.023800
				CHANNELS 3 Xrotation Yrotation Zrotation
				JOINT RightFoot
				{
					OFFSET 4.081824 -37.707954 -15.979600
					CHANNELS 3 Xrotation Yrotation Zrotation
					JOINT RightToeBase
					{
						OFFSET -5.346400 -15.068900 20.645000
						CHANNELS 3 Xrotation Yrotation Zrotation
						JOINT RightToe_End
						{
							OFFSET -2.754700 0.931300 11.300900
							CHANNELS 3 Xrotation Yrotation Zrotation
							End Site
							{
								OFFSET 0 0 0
							}
						}
					}
				}
			}
		}
	}
	JOINT Spine_virtual
	{
		OFFSET 0.000000 0.000000 0.000000
		CHANNELS 3 Xrotation Yrotation Zrotation
		JOINT Spine
		{
			OFFSET -0.279200 12.230698 -2.892100
			CHANNELS 3 Xrotation Yrotation Zrotation
			JOINT Spine1
			{
				OFFSET -0.232667 10.192268 -1.242267
				CHANNELS 3 Xrotation Yrotation Zrotation
				JOINT Spine1_split
				{
					OFFSET -0.232667 10.192268 -1.242267
					CHANNELS 3 Xrotation Yrotation Zrotation
					JOINT Spine2
					{
						OFFSET -0.232667 10.192268 -1.242267
						CHANNELS 3 Xrotation Yrotation Zrotation
						JOINT Neck_virtual
						{
							OFFSET 0.000000 0.000000 0.000000
							CHANNELS 3 Xrotation Yrotation Zrotation
							JOINT Neck
							{
								OFFSET -0.418800 17.814194 8.416900
								CHANNELS 3 Xrotation Yrotation Zrotation
								JOINT Head
								{
									OFFSET 0.000000 7.031097 3.806800
									CHANNELS 3 Xrotation Yrotation Zrotation
									JOINT HeadTop_End
									{
										OFFSET 0.000000 24.646606 12.978600
										CHANNELS 3 Xrotation Yrotation Zrotation
										End Site
										{
											OFFSET 0 0 0
										}
									}
								}
							}
						}
						JOINT LeftShoulder_virtual
						{
							OFFSET 0.000000 0.000000 0.000000
							CHANNELS 3 Xrotation Yrotation Zrotation
							JOINT LeftShoulder
							{
								OFFSET 8.476499 7.247704 -3.868750
								CHANNELS 3 Xrotation Yrotation Zrotation
								JOINT LeftShoulder_split
								{
									OFFSET 8.476499 7.247704 -3.868750
									CHANNELS 3 Xrotation Yrotation Zrotation
									JOINT LeftArm
									{
										OFFSET 9.308998 -2.777710 0.208600
										CHANNELS 3 Xrotation Yrotation Zrotation
										JOINT LeftForeArm
										{
											OFFSET 29.972298 0.000000 0.000000
											CHANNELS 3 Xrotation Yrotation Zrotation
											JOINT LeftHand
											{
												OFFSET 26.026505 0.000000 0.000000
												CHANNELS 3 Xrotation Yrotation Zrotation
												End Site
												{
													OFFSET 0 0 0
												}
											}
										}
									}
								}
							}
						}
						JOINT RightShoulder_virtual
						{
							OFFSET 0.000000 0.000000 0.000000
							CHANNELS 3 Xrotation Yrotation Zrotation
							JOINT RightShoulder
							{
								OFFSET -7.570500 7.247704 -3.868750
								CHANNELS 3 Xrotation Yrotation Zrotation
								JOINT RightShoulder_split
								{
									OFFSET -7.570500 7.247704 -3.868750
									CHANNELS 3 Xrotation Yrotation Zrotation
									JOINT RightArm
									{
										OFFSET -9.308998 -2.777710 0.208500
										CHANNELS 3 Xrotation Yrotation Zrotation
										JOINT RightForeArm
										{
											OFFSET -29.972300 0.000000 0.000000
											CHANNELS 3 Xrotation Yrotation Zrotation
											JOINT RightHand
											{
												OFFSET -26.026505 0.000000 0.000000
												CHANNELS 3 Xrotation Yrotation Zrotation
												End Site
												{
													OFFSET 0 0 0
												}
											}
										}
									}
								}
							}
						}
					}
				}
			}
		}
	}
}
MOTION
Frames: 6
Frame Time: 0.03333333
-0.999238 11.969227 8.617275 0.000000 0.000000 0.000000 -89.191411 -3.517689 -2.803512 -23.173993 14.688684 -3.609997 27.402804 -4.620574 -3.104969 2.925459 5.647255 8.231992 8.550973 -0.460024 1.671211 0.000000 0.000000 0.000000 -90.764574 -3.909444 -5.692737 -11.634937 -6.806254 -5.885361 15.781374 -0.599151 6.235424 9.937860 -4.173131 23.222522 -0.660353 -0.527440 -0.146381 0.000000 0.000000 0.000000 -87.208764 -3.899819 -5.091579 3.148723 3.043183 1.378143 -1.305689 0.956298 -0.100748 0.475483 0.377154 -0.273819 0.000000 0.000000 0.000000 -2.195275 0.438671 0.245684 2.403735 0.708621 -0.176927 10.502929 -5.119324 10.209176 0.000000 0.000000 0.000000 -2.868740 1.004018 0.209577 0.940164 -13.945975 -3.446701 -2.896960 0.116820 -3.947975 27.351993 0.546892 -69.281935 -178.926463 -39.308961 -178.125501 0.000000 0.000000 0.000000 -2.127326 0.696640 -0.669914 1.098904 2.553428 0.485442 1.052670 4.604712 0.330465 12.460121 7.103900 72.872996 -179.755389 46.184592 -179.419289 0.000000 0.000000 0.000000 
-0.998389 11.968616 8.618050 0.000000 0.000000 0.000000 -89.189990 -3.518042 -2.803687 -23.176483 14.685868 -3.611343 27.405326 -4.619865 -3.105174 2.926927 5.647700 8.230137 8.550541 -0.460205 1.670470 0.000000 0.000000 0.000000 -90.761377 -3.907078 -5.689214 -11.634271 -6.809752 -5.887439 15.779038 -0.598543 6.236815 9.938636 -4.175516 23.219182 -0.659384 -0.527883 -0.145523 0.000000 0.000000 0.000000 -87.207541 -3.900657 -5.093462 3.150036 3.042645 1.377713 -1.307578 0.956050 -0.100812 0.476797 0.384769 -0.275121 0.000000 0.000000 0.000000 -2.196571 0.437781 0.245062 2.400073 0.707851 -0.177639 10.504436 -5.118662 10.206518 0.000000 0.000000 0.000000 -2.872102 1.004285 0.208696 0.942117 -13.946006 -3.440418 -2.900228 0.116698 -3.957319 27.354631 0.553201 -69.290773 -178.922379 -39.297377 -178.121116 0.000000 0.000000 0.000000 -2.128853 0.696438 -0.670396 1.096637 2.550973 0.481451 1.062587 4.610758 0.329015 12.467647 7.101432 72.872593 -179.756468 46.166946 -179.419261 0.000000 0.000000 0.000000 
-0.997890 11.967438 8.619061 0.000000 0.000000 0.000000 -89.186752 -3.517940 -2.804024 -23.182104 14.683759 -3.611498 27.412488 -4.618558 -3.106241 2.927324 5.648139 8.229412 8.550367 -0.460208 1.670784 0.000000 0.000000 0.000000 -90.756589 -3.903933 -5.685368 -11.635365 -6.816469 -5.890102 15.777162 -0.598658 6.239476 9.937400 -4.180944 23.210651 -0.653034 -0.528131 -0.144194 0.000000 0.000000 0.000000 -87.205410 -3.902147 -5.096195 3.149987 3.040162 1.379007 -1.309837 0.955520 -0.102066 0.475758 0.390366 -0.277001 0.000000 0.000000 0.000000 -2.196836 0.437425 0.243238 2.399037 0.708991 -0.175549 10.505272 -5.119607 10.208221 0.000000 0.000000 0.000000 -2.875338 1.004668 0.207857 0.945383 -13.946268 -3.419962 -2.901541 0.118631 -3.965645 27.360684 0.566082 -69.309474 -178.917762 -39.280623 -178.117414 0.000000 0.000000 0.000000 -2.131245 0.695827 -0.671552 1.094351 2.545114 0.474408 1.075366 4.623338 0.329095 12.477613 7.101282 72.873952 -179.754815 46.149782 -179.418879 0.000000 0.000000 0.000000 
-0.997602 11.965675 8.619507 0.000000 0.000000 0.000000 -89.181678 -3.518196 -2.804566 -23.189016 14.682222 -3.611234 27.422065 -4.616838 -3.107293 2.926223 5.648682 8.228993 8.549556 -0.460065 1.672166 0.000000 0.000000 0.000000 -90.750155 -3.900680 -5.681607 -11.639168 -6.825685 -5.893777 15.775777 -0.598057 6.243370 9.937089 -4.187139 23.200920 -0.643557 -0.528055 -0.143092 0.000000 0.000000 0.000000 -87.202466 -3.904004 -5.098899 3.147924 3.036077 1.381729 -1.312416 0.954615 -0.103747 0.474627 0.393210 -0.277535 0.000000 0.000000 0.000000 -2.196032 0.437787 0.241060 2.400604 0.711835 -0.171717 10.503246 -5.123555 10.214005 0.000000 0.000000 0.000000 -2.878342 1.005472 0.207710 0.948910 -13.944578 -3.393487 -2.905074 0.120186 -3.970258 27.367308 0.581579 -69.329630 -178.913677 -39.266341 -178.114149 0.000000 0.000000 0.000000 -2.134481 0.695057 -0.672701 1.092195 2.537485 0.466879 1.087937 4.638671 0.330426 12.488581 7.101355 72.873809 -179.750457 46.137989 -179.418906 0.000000 0.000000 0.000000 
-0.997427 11.963673 8.618992 0.000000 0.000000 0.000000 -89.174861 -3.519515 -2.805388 -23.194952 14.680831 -3.611198 27.431203 -4.614743 -3.107488 2.923198 5.649413 8.229021 8.547439 -0.459841 1.674240 0.000000 0.000000 0.000000 -90.742355 -3.897782 -5.677881 -11.645306 -6.836347 -5.897575 15.774269 -0.595557 6.247779 9.938861 -4.192646 23.193313 -0.635261 -0.527803 -0.142870 0.000000 0.000000 0.000000 -87.198450 -3.905946 -5.100653 3.143873 3.031052 1.385926 -1.315357 0.953600 -0.104960 0.475938 0.391089 -0.276535 0.000000 0.000000 0.000000 -2.194351 0.439043 0.239617 2.403701 0.715952 -0.167605 10.495501 -5.129510 10.222458 0.000000 0.000000 0.000000 -2.880634 1.006936 0.208735 0.951748 -13.937197 -3.370966 -2.909963 0.118361 -3.974788 27.372123 0.594749 -69.341638 -178.910849 -39.258093 -178.111485 0.000000 0.000000 0.000000 -2.137800 0.694542 -0.673052 1.090379 2.530732 0.461013 1.097374 4.656432 0.330148 12.498258 7.100371 72.868980 -179.743846 46.132054 -179.420013 0.000000 0.000000 0.000000 
-0.997044 11.961201 8.617714 0.000000 0.000000 0.000000 -89.166938 -3.521196 -2.805567 -23.198819 14.679695 -3.611959 27.437158 -4.611984 -3.106548 2.917890 5.650568 8.230391 8.545706 -0.459590 1.676041 0.000000 0.000000 0.000000 -90.734624 -3.896173 -5.674773 -11.651646 -6.847190 -5.900673 15.771962 -0.591434 6.251279 9.940819 -4.198324 23.187913 -0.628146 -0.527584 -0.143594 0.000000 0.000000 0.000000 -87.193498 -3.908090 -5.101181 3.138383 3.026005 1.391551 -1.318669 0.952912 -0.104799 0.479055 0.386141 -0.273066 0.000000 0.000000 0.000000 -2.192079 0.440993 0.239799 2.406573 0.720928 -0.164530 10.481128 -5.137420 10.232456 0.000000 0.000000 0.000000 -2.882753 1.009268 0.211038 0.952817 -13.922154 -3.362432 -2.918323 0.112315 -3.979155 27.374480 0.605970 -69.337601 -178.909948 -39.258739 -178.109053 0.000000 0.000000 0.000000 -2.141119 0.694589 -0.672178 1.089457 2.528118 0.457859 1.103538 4.674968 0.329589 12.505487 7.098381 72.857983 -179.736005 46.127874 -179.422048 0.000000 0.000000 0.000000 
